<?xml version="1.0" encoding="iso-8859-1"?>
<!-- Generator: Adobe Illustrator 16.0.0, SVG Export Plug-In . SVG Version: 6.00 Build 0)  -->
<!DOCTYPE svg PUBLIC "-//W3C//DTD SVG 1.1//EN" "http://www.w3.org/Graphics/SVG/1.1/DTD/svg11.dtd">
<svg version="1.1" id="Capa_1" xmlns="http://www.w3.org/2000/svg" xmlns:xlink="http://www.w3.org/1999/xlink" x="0px" y="0px"
	 width="533.333px" height="533.334px" viewBox="0 0 533.333 533.334" style="enable-background:new 0 0 533.333 533.334;"
	 xml:space="preserve">
<g>
	<path d="M533.333,266.667V300H411.195c14.325,20.058,22.139,43.068,22.139,66.667c0,36.916-19.094,72.409-52.386,97.377
		C350.033,487.23,309.446,500,266.667,500c-42.78,0-83.366-12.77-114.281-35.956C119.094,439.076,100,403.583,100,366.667h66.667
		c0,36.137,45.795,66.666,100,66.666s100-30.529,100-66.666c0-36.138-45.795-66.667-100-66.667H0v-33.333h155.999
		c-1.218-0.862-2.425-1.731-3.613-2.623C119.094,239.075,100,203.582,100,166.667s19.094-72.408,52.385-97.377
		c30.916-23.187,71.501-35.956,114.281-35.956c42.779,0,83.366,12.77,114.281,35.956c33.292,24.969,52.386,60.461,52.386,97.377
		h-66.667c0-36.136-45.795-66.667-100-66.667s-100,30.53-100,66.667c0,36.137,45.795,66.667,100,66.667
		c41.135,0,80.236,11.811,110.668,33.333H533.333z"/>
</g>
<g>
</g>
<g>
</g>
<g>
</g>
<g>
</g>
<g>
</g>
<g>
</g>
<g>
</g>
<g>
</g>
<g>
</g>
<g>
</g>
<g>
</g>
<g>
</g>
<g>
</g>
<g>
</g>
<g>
</g>
</svg>
